<?xml version="1.0" encoding="UTF-8" standalone="no"?>
<svg
   xmlns:dc="http://purl.org/dc/elements/1.1/"
   xmlns:cc="http://creativecommons.org/ns#"
   xmlns:rdf="http://www.w3.org/1999/02/22-rdf-syntax-ns#"
   xmlns:svg="http://www.w3.org/2000/svg"
   xmlns="http://www.w3.org/2000/svg"
   xmlns:sodipodi="http://sodipodi.sourceforge.net/DTD/sodipodi-0.dtd"
   xmlns:inkscape="http://www.inkscape.org/namespaces/inkscape"
   inkscape:version="1.0 (4035a4fb49, 2020-05-01)"
   height="390"
   width="512"
   sodipodi:docname="email.svg"
   xml:space="preserve"
   viewBox="0 0 512 390"
   y="0px"
   x="0px"
   id="Capa_1"
   version="1.1"><metadata
   id="metadata43"><rdf:RDF><cc:Work
       rdf:about=""><dc:format>image/svg+xml</dc:format><dc:type
         rdf:resource="http://purl.org/dc/dcmitype/StillImage" /></cc:Work></rdf:RDF></metadata><defs
   id="defs41" /><sodipodi:namedview
   inkscape:current-layer="Capa_1"
   inkscape:window-maximized="1"
   inkscape:window-y="-8"
   inkscape:window-x="-8"
   inkscape:cy="195"
   inkscape:cx="256"
   inkscape:zoom="1.6601562"
   showgrid="false"
   id="namedview39"
   inkscape:window-height="1017"
   inkscape:window-width="1920"
   inkscape:pageshadow="2"
   inkscape:pageopacity="0"
   guidetolerance="10"
   gridtolerance="10"
   objecttolerance="10"
   borderopacity="1"
   bordercolor="#666666"
   pagecolor="#ffffff" />
<g
   transform="translate(0,-61)"
   id="g6">
	<g
   id="g4">
		<path
   id="path2"
   d="M 467,61 H 45 C 20.218,61 0,81.196 0,106 v 300 c 0,24.72 20.128,45 45,45 h 422 c 24.72,0 45,-20.128 45,-45 V 106 C 512,81.28 491.872,61 467,61 Z M 460.786,91 256.954,294.833 51.359,91 Z M 30,399.788 V 112.069 l 144.479,143.24 z M 51.213,421 195.783,276.43 246.44,326.652 c 5.864,5.814 15.327,5.795 21.167,-0.046 L 317,277.213 460.787,421 Z M 482,399.787 338.213,256 482,112.212 Z" />
	</g>
</g>
<g
   transform="translate(0,-61)"
   id="g8">
</g>
<g
   transform="translate(0,-61)"
   id="g10">
</g>
<g
   transform="translate(0,-61)"
   id="g12">
</g>
<g
   transform="translate(0,-61)"
   id="g14">
</g>
<g
   transform="translate(0,-61)"
   id="g16">
</g>
<g
   transform="translate(0,-61)"
   id="g18">
</g>
<g
   transform="translate(0,-61)"
   id="g20">
</g>
<g
   transform="translate(0,-61)"
   id="g22">
</g>
<g
   transform="translate(0,-61)"
   id="g24">
</g>
<g
   transform="translate(0,-61)"
   id="g26">
</g>
<g
   transform="translate(0,-61)"
   id="g28">
</g>
<g
   transform="translate(0,-61)"
   id="g30">
</g>
<g
   transform="translate(0,-61)"
   id="g32">
</g>
<g
   transform="translate(0,-61)"
   id="g34">
</g>
<g
   transform="translate(0,-61)"
   id="g36">
</g>
</svg>
