<?xml version="1.0" encoding="UTF-8" standalone="no"?>
<svg
   xmlns:dc="http://purl.org/dc/elements/1.1/"
   xmlns:cc="http://creativecommons.org/ns#"
   xmlns:rdf="http://www.w3.org/1999/02/22-rdf-syntax-ns#"
   xmlns:svg="http://www.w3.org/2000/svg"
   xmlns="http://www.w3.org/2000/svg"
   version="1.1"
   viewBox="0 0 228.21 379"
   data-name="Layer 1"
   id="Layer_1">
  <metadata
     id="metadata27">
    <rdf:RDF>
      <cc:Work
         rdf:about="">
        <dc:format>image/svg+xml</dc:format>
        <dc:type
           rdf:resource="http://purl.org/dc/dcmitype/StillImage" />
        <dc:title>Layout Miari</dc:title>
      </cc:Work>
    </rdf:RDF>
  </metadata>
  <defs
     id="defs25" />
  <title
     id="title2">Layout Miari</title>
  <path
     id="path4"
     transform="translate(-197.41 -245)"
     d="M413.74,279.24c-.17-.17-.51-.45-.48-.5.92-1.59-.62-2.75-.7-4.16a33.48,33.48,0,0,0-.68-4.34,4.11,4.11,0,0,0-.52-1.13c-2,.69-3.93,1.35-5.84,2a2.05,2.05,0,0,1-1.2,0c-3.8-1.37-7.6-.25-11.4-.08-.48,0-1.12.29-1.41.07-2.22-1.63-4.67-.78-6.9-.45-5.77.85-11.56.6-17.34.81q-12,.44-23.92.87c-1.79.07-3.61-.06-5.38.17-4.43.6-8.87-.1-13.34.53-5.05.71-10.23.49-15.35.67-3.08.11-6.17.23-9.26.33l-17,.57a2.54,2.54,0,0,0-.48,0c-4.89,1.26-9.91.47-14.85.9-5.35.45-10.72.69-16.09.89-3.65.14-7.31,0-11,.05-.89,0-1.79.29-2.68.28-4.56-.05-9.12-.1-13.68-.25a15.06,15.06,0,0,1-3-.7l-11.62,1.56c.56-.87.75-1.57,1.11-1.68a41.69,41.69,0,0,1,4.44-.94,28,28,0,0,1,10.68.08c1.59.35,3.38-.25,5.08-.28,6.44-.11,12.88-.15,19.32-.25.89,0,1.77-.25,2.67-.29,3.49-.17,7-.21,10.48-.45,5.92-.41,11.83-.93,17.75-1.41.65-.05,1.29-.16,1.95-.18,5.19-.17,10.39-.3,15.58-.49,3.73-.14,7.45-.37,11.18-.54,5-.22,10.07-.4,15.1-.63,3.72-.17,7.43-.44,11.14-.59,3.9-.16,7.81-.23,11.71-.36,4.73-.15,9.45-.34,14.18-.5,3-.11,6-.29,9.06-.27a95.67,95.67,0,0,0,11.71-.67c4.76-.57,9.61-.25,14.43-.34a26.26,26.26,0,0,0,3.66-.23,12.19,12.19,0,0,1,5.57.28c1.81.55,3.38.38,4.57-1.29a2.3,2.3,0,0,1,1-.72,1.76,1.76,0,0,1,2.54,1.39,148.35,148.35,0,0,1,3,20.76c.42,4.64.88,9.28,1,13.92A185.78,185.78,0,0,1,418,321c-.27,3.3.36,6.66.43,10a82.33,82.33,0,0,1-.17,11,88.6,88.6,0,0,0-.27,11.74c.07,4.73.11,9.44-.22,14.17-.2,3,.11,6,.14,9.06,0,5.22,0,10.44.06,15.67,0,7.27.07,14.54.14,21.81,0,1.3.34,2.59.33,3.89,0,2.93-.25,5.86-.31,8.79-.1,4.24.12,8.51-.25,12.73-.41,4.52.52,8.95.42,13.42-.15,5.88-.22,11.75.12,17.62.05.9.11,1.8.21,2.69a15.22,15.22,0,0,1,0,6.05,11.44,11.44,0,0,0,.08,2.91c0,1.87,0,3.74-.06,5.61,0,1.7-.16,3.42,0,5.12.4,5.82-.57,11.58-.78,17.37-.1,2.84.11,5.69.14,8.54a51.22,51.22,0,0,1-.11,6.79,46.49,46.49,0,0,0,.33,14.13,4.82,4.82,0,0,1,.22.95c-.1,2.84-.24,5.67-.37,8.51-.18,3.58-.41,7.16-.53,10.75-.22,6.11-.26,12.22-.61,18.32a39.4,39.4,0,0,0,.26,7.52c.33,2.54,0,5.18-.07,7.77,0,1.31.33,2.68,0,3.9a19.26,19.26,0,0,0-.26,5.56q.12,4,.2,8c0,1.3.08,2.61,0,3.91-.11,2.62.73,3.47,3.29,3.18.73-.09,1.45-.31,2.18-.36a2.91,2.91,0,0,1,3,2.07,2,2,0,0,1-2.36,2.62,9.81,9.81,0,0,0-3.83-.44c-3.73.1-7.46.17-11.2.17a53.81,53.81,0,0,1-8-.27c-4.78-.73-9.61-.6-14.4-.79-2.66-.11-5.31-.53-8-.47s-5.2-.36-7.81-.44c-3.68-.11-7.35-.08-11-.15-4-.07-8-.27-12-.28a53.15,53.15,0,0,0-7.46.11c-2.23.3-4.55-.22-6.83-.16-4.63.12-9.24-.39-13.9.12-3.43.38-7-.15-10.45-.2-1.12,0-2.25.25-3.38.33-2.32.15-4.56.62-7,.14s-5.3.06-8,0c-4.56-.09-9.11-.34-13.67-.45-4.87-.12-9.75-.14-14.62-.24-2.6-.05-5.21-.27-7.81-.25-2.28,0-4.56.27-6.84.38a9,9,0,0,1-2.44-.06,41.56,41.56,0,0,0-11.45-.54,41.65,41.65,0,0,1-8.95-.8,6.54,6.54,0,0,0-1.71-.06,72.84,72.84,0,0,1-14.16-.49,3.61,3.61,0,0,0-2.89.77c-1.36,1-2.88,1.7-3.47,3.54-.19.6-1.14,1-2.1,1.69-.92-2.77.29-5.79-2.38-7.46,2.66-1.58,2.62-1.67,2.27-4.63a29.51,29.51,0,0,1-.3-6.56c.43-3.89-.39-7.65-.64-11.47-.33-5-.76-9.92,0-14.89a3.59,3.59,0,0,0,.08-1.22,58.47,58.47,0,0,1-.13-14.36c.33-4.14.26-8.31.42-12.46.18-4.54.43-9.07.64-13.6.09-1.88.2-3.76.2-5.63,0-7.33-.35-14.67.18-22,.31-4.23.84-8.44,1.25-12.65.12-1.22.19-2.45.19-3.67,0-4-.18-8,0-12,.15-2.67-.78-5.19-.58-7.83.14-2,.18-3.91.23-5.86,0-1.06,0-2.12,0-3.18,0-.57-.13-1.14-.12-1.71.09-3.82.11-7.65.36-11.47.18-2.84.66-5.67,1-8.5.12-1,.2-1.93.25-2.9.1-1.86.19-3.73.22-5.59.06-4.3.13-8.6.12-12.9q0-9.4-.15-18.81c-.05-3.51-.27-7-.29-10.51,0-1.2.5-2.39.51-3.59,0-4.46-.08-8.93-.05-13.39.05-6,.19-12,.28-18.07,0-1,0-1.95-.07-2.93,0-.41-.28-.86-.16-1.2,1.21-3.25,0-6.54.18-9.8a5.34,5.34,0,0,1,.2-1.45,5.57,5.57,0,0,0,.15-3c-.22-1.22.21-2.61.25-4,.07-2.67.53-5.34.79-8a18.23,18.23,0,0,0-.06-2c0-1.46-.07-2.93,0-4.38s.69-2.72-.44-3.95c-.13-.13-.11-.47-.06-.69,1.21-5.29.7-10.69,1.12-16,.24-2.92.13-5.86.27-8.79.12-2.43.47-4.85.55-7.28,0-1.37-.28-2.74-.35-4.11a26.43,26.43,0,0,1,0-3.33c.1-1.44.37-2.87.41-4.32,0-.44-.49-.89-.75-1.35a1.42,1.42,0,0,1,.12-.46c.5-.86,1-1.88,2.23-1.35,1.06.45,1,1.39,1,2.48-.14,2.6.06,5.21,0,7.81,0,1.45-.38,2.9-.51,4.35-.11,1.21-.12,2.42-.14,3.63-.05,3.43,0,6.86-.13,10.28-.21,5.62-.57,11.23-.78,16.85-.16,4.05-.18,8.11-.25,12.17,0,1.47,0,2.94,0,4.41-.19,3.65-.45,7.3-.68,11a5.13,5.13,0,0,0-.08,1.69c1.14,3.46.47,6.95.34,10.45-.31,8.31-.72,16.62-.22,25a102.12,102.12,0,0,1-.42,13.19,84.28,84.28,0,0,0,0,11.46c.36,5.28.21,10.6.25,15.91,0,1.3-.16,2.61-.14,3.91a153.55,153.55,0,0,1-.47,19.31,65.22,65.22,0,0,0-.83,7c0,4.39-.19,8.79-.32,13.18-.09,3.35-.29,6.7-.31,10a68.9,68.9,0,0,0,.32,7.33,48.94,48.94,0,0,1,.08,9.53c-.27,3.08-.13,6.21-.47,9.28a164.54,164.54,0,0,0-1,23.49c.13,3.66-.23,7.33-.44,11-.32,5.45-.78,10.9-1,16.36-.2,4.24,0,8.5-.3,12.72a138.45,138.45,0,0,0-.27,14.69c.06,2.52-.31,5.05-.39,7.58a38.32,38.32,0,0,0,.17,4.14c.36,4.31.87,8.61,1.09,12.92.2,3.84.09,7.69.12,11.53a7.08,7.08,0,0,0,0,1.22c.17,1,.7,1.32,1.75,1.18a11.57,11.57,0,0,1,4.05-.16c3.73.9,7.45.64,11.21.6,3.17,0,6.33.42,9.5.6,2.34.13,4.65,1,7,.17a2.26,2.26,0,0,1,1-.08c6.19.72,12.4.23,18.6.26,5.58,0,11.16-.08,16.74,0,6.6.09,13.2.4,19.8.45q12.75.09,25.49-.11c4.22-.07,8.44-.52,12.67-.63,2.16-.06,4.33.26,6.5.34s4.22.11,6.33.08c1.37,0,2.74-.26,4.11-.26,3,0,6,.1,9,.13,5,0,10,0,15,.1,4.4.12,8.8.39,13.2.7a80.88,80.88,0,0,0,12.93.32,21.37,21.37,0,0,1,3.16.3c3.51.2,7,.36,10.52.53a6.5,6.5,0,0,0,1-.05c2.63-.29,4.19-.24,2.88-4.11a14.17,14.17,0,0,1-.54-4.12c-.14-7.5-.2-15-.34-22.51-.05-2.34-.28-4.67-.37-7-.05-1.47,0-2.94,0-4.41s.24-2.93.29-4.39c.15-4.65.3-9.3.41-14,.08-3.91.18-7.82.13-11.73-.07-5.8-.28-11.59-.41-17.38,0-.81,0-1.63.05-2.44.14-3.42.39-6.84.42-10.26a154.29,154.29,0,0,1,.77-17.85,82.7,82.7,0,0,0,.39-9.05c.07-4.24.1-8.48,0-12.72-.05-2.58-.43-5.16-.52-7.74-.05-1.46.23-2.93.26-4.39,0-1.71,0-3.43-.06-5.14,0-4.49-.1-9-.1-13.45,0-6.45,0-12.9,0-19.35,0-3.75.1-7.51.13-11.26,0-1.72,0-3.43,0-5.15q0-14,0-27.91c0-7.74,0-15.48,0-23.22a11,11,0,0,0-.58-2.23c-.1-.45-.34-1.05-.15-1.36,1.05-1.81.61-3.76.79-5.67.41-4.52-.29-9.09.85-13.6a19.92,19.92,0,0,0,.18-6.08c0-.78-.86-1.52-1.31-2.25a6.41,6.41,0,0,0,.76-1.91c.19-5.3.29-10.61.45-15.91.1-3.1.38-6.2.39-9.29,0-2.35-.26-4.69-.41-7s-.29-5-.48-7.52c-.06-.77,0-1.52-.95-2.08-.43-.25-.3-1.44-.43-2.21l-.06,0a2.3,2.3,0,0,0-.26-3.05Z" />
  <path
     id="path18"
     transform="translate(-197.41 -245)"
     d="M389.45,250.64c-.32-1.59.07-3.27-1.19-4.44-1.23.08,3.46-2,4.25-.87.14.2.25.43.38.63.71,1.11,1.61,2.24.56,3.56A3.66,3.66,0,0,1,389.45,250.64Z" />
  <path
     id="path20"
     transform="translate(-197.41 -245)"
     d="M268.4,254.29a15.33,15.33,0,0,1-3.49.51,13.54,13.54,0,0,1-3.16-1.15c.56-1.78,1.13-3.57,1.69-5.36C267.1,249.52,268.63,251.4,268.4,254.29Z" />
</svg>
